<?xml version="1.0" encoding="utf-8"?>
<!-- Generator: Adobe Illustrator 26.0.3, SVG Export Plug-In . SVG Version: 6.00 Build 0)  -->
<svg version="1.1" id="Calque_1" xmlns="http://www.w3.org/2000/svg" xmlns:xlink="http://www.w3.org/1999/xlink" x="0px" y="0px"
	 viewBox="0 0 300 300" style="enable-background:new 0 0 300 300;" xml:space="preserve">
<style type="text/css">
	.st0{fill:#FFD7D7;}
</style>
<g id="_x39_269873b-566f-aa23-fe77-697bbc54db67" transform="matrix(0.17276311525438642,0,0,0.17276311525438642,35.75002377601375,124.08554457454373)">
	<g>
		<path class="st0" d="M661.3,1018.2c232.6,0,450.7-89.3,614.8-253.4c164.1-164.1,253.4-382.2,253.4-614.8
			c0-232.6-89.3-450.7-253.4-614.8C1112-628.9,893.9-718.2,661.3-718.2S210.6-628.9,46.5-464.8C-117.6-300.7-206.9-82.6-206.9,150
			s89.3,450.7,253.4,614.8S428.7,1018.2,661.3,1018.2z M711.2,870.8c-16.6,2.1-33.2,2.1-49.9,2.1c-22.8,0-45.7-2.1-68.5-4.2
			C518,752.4,461.9,627.7,428.7,496.9h367.7c12.5,31.2,35.3,60.2,62.3,78.9C823.3,679.7,773.5,777.3,711.2,870.8z M908.5,829.2
			C948,756.5,979.1,683.8,1004,607c60.2-12.5,108-54,130.9-110.1h159.9C1211.8,648.5,1072.6,766.9,908.5,829.2z M1382.1,150
			c0,68.5-10.4,135-27,199.4h-224.3c-12.5-27-33.2-51.9-58.2-70.6c4.2-45.7,6.2-91.4,6.2-137.1c0-64.4-4.2-128.8-12.5-191.1H1353
			C1373.8,12.9,1382.1,81.5,1382.1,150z M1294.8-196.9h-253.4C1014.4-311.1,975-419.1,921-523
			C1078.8-462.8,1211.8-344.4,1294.8-196.9z M933.4,141.7c0,35.3-2.1,70.6-4.2,105.9c-58.2,12.5-105.9,49.9-128.8,101.8H399.6
			c-8.3-62.3-14.5-126.7-14.5-189c0-39.5,2.1-78.9,6.2-118.4c54-10.4,97.6-45.7,124.6-91.4h405C929.3,12.9,933.4,77.3,933.4,141.7z
			 M607.3-568.7c18.7-2.1,37.4-2.1,54-2.1c20.8,0,41.5,0,62.3,2.1c74.8,116.3,130.9,240.9,164.1,371.8H526.3
			c-12.5-35.3-35.3-66.5-64.4-89.3C499.3-385.9,547.1-479.4,607.3-568.7z M410-527.1c-35.3,66.5-66.5,137.1-91.4,207.7
			C254.2-307,202.3-259.2,181.5-199H29.9C110.9-346.4,245.9-464.8,410-527.1z M-59.5,150c0-68.5,10.4-137.1,29.1-199.4H196
			c12.5,22.8,31.2,43.6,51.9,60.2c-4.2,49.9-8.3,99.7-8.3,149.6c0,64.4,4.2,126.7,12.5,189H-30.4C-51.1,285-59.5,218.5-59.5,150z
			 M277,494.8c27,112.2,66.5,222.3,120.5,326.1C239.7,758.6,108.8,642.3,27.8,494.8H277z"/>
	</g>
</g>
</svg>
